<svg width="1000" height="1000" viewBox="0 0 1000 1000" fill="none" xmlns="http://www.w3.org/2000/svg">
<path d="M1000 0H0V1000H1000V0Z" fill="#D82435"/>
<path opacity="0.15" d="M625.9 290L655 213.4L742.8 197" stroke="#262626" stroke-width="14" stroke-miterlimit="10" stroke-linecap="round" stroke-linejoin="round"/>
<path opacity="0.15" d="M261.4 684.2H771.8" stroke="#262626" stroke-width="8" stroke-miterlimit="10" stroke-linecap="round" stroke-linejoin="round"/>
<g opacity="0.6">
<path opacity="0.15" d="M700.6 684.201H561.1L518.9 380.101H742.8L700.6 684.201Z" stroke="#262626" stroke-width="8" stroke-miterlimit="10" stroke-linecap="round" stroke-linejoin="round"/>
<path opacity="0.15" d="M771.8 380.101H488.4V368.301C488.4 345.301 507.1 326.601 530.1 326.601H730C753 326.601 771.7 345.301 771.7 368.301V380.101H771.8Z" stroke="#262626" stroke-width="8" stroke-miterlimit="10" stroke-linecap="round" stroke-linejoin="round"/>
<path opacity="0.15" d="M731.1 326.6H529.1V325.7C529.1 305.9 545.1 289.9 564.9 289.9H695.4C715.2 289.9 731.2 305.9 731.2 325.7V326.6H731.1Z" fill="white"/>
<path opacity="0.15" d="M731.1 326.6H529.1V325.7C529.1 305.9 545.1 289.9 564.9 289.9H695.4C715.2 289.9 731.2 305.9 731.2 325.7V326.6H731.1Z" stroke="#262626" stroke-width="8" stroke-miterlimit="10" stroke-linecap="round" stroke-linejoin="round"/>
<path opacity="0.15" d="M717.2 564.601L730.6 467.601H531.1L544.5 564.601H717.2Z" fill="white"/>
<path opacity="0.15" d="M717.2 564.601L730.6 467.601H531.1L544.5 564.601H717.2Z" stroke="#262626" stroke-width="8" stroke-miterlimit="10" stroke-linecap="round" stroke-linejoin="round"/>
</g>
<g opacity="0.6">
<path opacity="0.6" d="M301 516.1H305.6" stroke="#DF5E4C" stroke-width="3" stroke-miterlimit="10" stroke-linecap="round" stroke-linejoin="round"/>
<path opacity="0.6" d="M303.3 513.8V518.4" stroke="#DF5E4C" stroke-width="3" stroke-miterlimit="10" stroke-linecap="round" stroke-linejoin="round"/>
</g>
<g opacity="0.67">
<path opacity="0.67" d="M771.8 535.5H776.4" stroke="#DF5E4C" stroke-width="3" stroke-miterlimit="10" stroke-linecap="round" stroke-linejoin="round"/>
<path opacity="0.67" d="M774.1 533.2V537.8" stroke="#DF5E4C" stroke-width="3" stroke-miterlimit="10" stroke-linecap="round" stroke-linejoin="round"/>
</g>
<path d="M252.7 516.1H242.7" stroke="#F7931E" stroke-width="4" stroke-miterlimit="10" stroke-linecap="round" stroke-linejoin="round"/>
<path d="M247.7 511.1V521.1" stroke="#F7931E" stroke-width="4" stroke-miterlimit="10" stroke-linecap="round" stroke-linejoin="round"/>
<g opacity="0.7">
<path opacity="0.7" d="M747.9 500H737.6" stroke="#F7931E" stroke-width="4" stroke-miterlimit="10" stroke-linecap="round" stroke-linejoin="round"/>
<path opacity="0.7" d="M742.8 494.8V505.2" stroke="#F7931E" stroke-width="4" stroke-miterlimit="10" stroke-linecap="round" stroke-linejoin="round"/>
</g>
<g opacity="0.4">
<path opacity="0.4" d="M288.5 604.5H298.5" stroke="#622F2F" stroke-width="5" stroke-miterlimit="10" stroke-linecap="round" stroke-linejoin="round"/>
<path opacity="0.4" d="M293.5 599.5V609.5" stroke="#622F2F" stroke-width="5" stroke-miterlimit="10" stroke-linecap="round" stroke-linejoin="round"/>
</g>
<g opacity="0.6">
<path opacity="0.6" d="M670.4 604.5H677.8" stroke="#8DC838" stroke-width="3" stroke-miterlimit="10" stroke-linecap="round"/>
<path opacity="0.6" d="M674.1 600.8V608.2" stroke="#8DC838" stroke-width="3" stroke-miterlimit="10" stroke-linecap="round"/>
</g>
<path d="M742.8 575.4C745.451 575.4 747.6 573.251 747.6 570.6C747.6 567.949 745.451 565.8 742.8 565.8C740.149 565.8 738 567.949 738 570.6C738 573.251 740.149 575.4 742.8 575.4Z" stroke="#8DC838" stroke-width="4" stroke-miterlimit="10"/>
<path opacity="0.8" d="M278.4 558.9C280.499 558.9 282.2 557.198 282.2 555.1C282.2 553.001 280.499 551.3 278.4 551.3C276.301 551.3 274.6 553.001 274.6 555.1C274.6 557.198 276.301 558.9 278.4 558.9Z" stroke="#8DC838" stroke-width="4" stroke-miterlimit="10"/>
<path opacity="0.74" d="M730.6 634.7C732.423 634.7 733.9 633.222 733.9 631.4C733.9 629.577 732.423 628.1 730.6 628.1C728.777 628.1 727.3 629.577 727.3 631.4C727.3 633.222 728.777 634.7 730.6 634.7Z" stroke="#622F2F" stroke-width="3" stroke-miterlimit="10" stroke-linecap="round" stroke-linejoin="round"/>
<path d="M586.4 683.999H413.6C377.9 683.999 349 655.199 349 619.499V619.399C349 613.099 354.1 607.899 360.5 607.899H639.6C645.9 607.899 651.1 613.099 651.1 619.499V619.399C651 655.099 622.1 683.999 586.4 683.999Z" fill="#EAA772"/>
<g opacity="0.25">
<path opacity="0.25" d="M414 619.499C414 613.099 419.1 607.899 425.5 607.899H360.5C354.2 607.899 349 613.099 349 619.399V619.499C349 655.199 377.9 683.999 413.6 683.999H478.6C442.9 683.999 414 655.199 414 619.499Z" fill="#EAA772"/>
<path opacity="0.25" d="M349.2 620.1H650.7C649.6 614.1 645 609.5 639.5 609.5H360.5C355 609.4 350.4 614 349.2 620.1Z" fill="#EAA772"/>
</g>
<path d="M586.4 683.999H413.6C377.9 683.999 349 655.199 349 619.499V619.399C349 613.099 354.1 607.899 360.5 607.899H639.6C645.9 607.899 651.1 613.099 651.1 619.499V619.399C651 655.099 622.1 683.999 586.4 683.999Z" stroke="#442F2F" stroke-width="8" stroke-miterlimit="10" stroke-linecap="round" stroke-linejoin="round"/>
<path d="M512.1 380.2H487.2C410.7 380.2 349.1 422.9 349.1 474.4V474.3C349.1 485.4 362 494.2 378.4 494.2H621C637.4 494.2 651.1 485.4 651.1 474.3C651 422.9 588.6 380.2 512.1 380.2Z" fill="#EAA772"/>
<path d="M512.1 380.2H487.2C410.7 380.2 349.1 422.9 349.1 474.4V474.3C349.1 485.4 362 494.2 378.4 494.2H621C637.4 494.2 651.1 485.4 651.1 474.3C651 422.9 588.6 380.2 512.1 380.2Z" fill="#EAA772"/>
<g opacity="0.3">
<path opacity="0.3" d="M532.4 381.3C525.8 380.6 519 380.3 512 380.3H487.1C410.6 380.3 349 423 349 474.5C349 485.5 361.9 494.3 378.3 494.3H417.6V477.4C426.9 426.2 467.7 387.9 532.4 381.3Z" fill="#EAA772"/>
</g>
<path d="M512.1 380.2H487.2C410.7 380.2 349.1 422.9 349.1 474.4V474.3C349.1 485.4 362 494.2 378.4 494.2H621C637.4 494.2 651.1 485.4 651.1 474.3C651 422.9 588.6 380.2 512.1 380.2Z" stroke="#442F2F" stroke-width="8" stroke-miterlimit="10" stroke-linecap="round" stroke-linejoin="round"/>
<path d="M657.1 575.3C657.1 593.3 642.5 607.9 624.5 607.9H375.6C357.6 607.9 343 593.3 343 575.3C343 557.3 357.6 542.7 375.6 542.7H624.5C642.5 542.7 657.1 557.3 657.1 575.3Z" fill="#5B3E40"/>
<g opacity="0.6">
<path opacity="0.6" d="M359.9 585.401C361.17 585.401 362.2 584.371 362.2 583.101C362.2 581.831 361.17 580.801 359.9 580.801C358.63 580.801 357.6 581.831 357.6 583.101C357.6 584.371 358.63 585.401 359.9 585.401Z" fill="#442F2F"/>
<path opacity="0.6" d="M375.4 595.701C376.67 595.701 377.7 594.671 377.7 593.401C377.7 592.13 376.67 591.101 375.4 591.101C374.13 591.101 373.1 592.13 373.1 593.401C373.1 594.671 374.13 595.701 375.4 595.701Z" fill="#442F2F"/>
<path opacity="0.6" d="M365.6 595.701C366.87 595.701 367.9 594.671 367.9 593.401C367.9 592.13 366.87 591.101 365.6 591.101C364.33 591.101 363.3 592.13 363.3 593.401C363.3 594.671 364.33 595.701 365.6 595.701Z" fill="#442F2F"/>
<path opacity="0.6" d="M359.9 577.5C361.17 577.5 362.2 576.471 362.2 575.2C362.2 573.93 361.17 572.9 359.9 572.9C358.63 572.9 357.6 573.93 357.6 575.2C357.6 576.471 358.63 577.5 359.9 577.5Z" fill="#442F2F"/>
<path opacity="0.6" d="M373.1 583.101C374.37 583.101 375.4 582.071 375.4 580.801C375.4 579.531 374.37 578.501 373.1 578.501C371.83 578.501 370.8 579.531 370.8 580.801C370.8 582.071 371.83 583.101 373.1 583.101Z" fill="#442F2F"/>
<path opacity="0.6" d="M409.1 590C410.37 590 411.4 588.971 411.4 587.7C411.4 586.43 410.37 585.4 409.1 585.4C407.83 585.4 406.8 586.43 406.8 587.7C406.8 588.971 407.83 590 409.1 590Z" fill="#442F2F"/>
<path opacity="0.6" d="M451.4 585.401C452.67 585.401 453.7 584.371 453.7 583.101C453.7 581.831 452.67 580.801 451.4 580.801C450.13 580.801 449.1 581.831 449.1 583.101C449.1 584.371 450.13 585.401 451.4 585.401Z" fill="#442F2F"/>
<path opacity="0.6" d="M611.6 595.701C612.87 595.701 613.9 594.671 613.9 593.401C613.9 592.13 612.87 591.101 611.6 591.101C610.33 591.101 609.3 592.13 609.3 593.401C609.3 594.671 610.33 595.701 611.6 595.701Z" fill="#442F2F"/>
<path opacity="0.6" d="M597.4 595.701C598.67 595.701 599.7 594.671 599.7 593.401C599.7 592.13 598.67 591.101 597.4 591.101C596.13 591.101 595.1 592.13 595.1 593.401C595.1 594.671 596.13 595.701 597.4 595.701Z" fill="#442F2F"/>
<path opacity="0.6" d="M588.6 595.701C589.87 595.701 590.9 594.671 590.9 593.401C590.9 592.13 589.87 591.101 588.6 591.101C587.33 591.101 586.3 592.13 586.3 593.401C586.3 594.671 587.33 595.701 588.6 595.701Z" fill="#442F2F"/>
<path opacity="0.6" d="M593.2 590C594.47 590 595.5 588.971 595.5 587.7C595.5 586.43 594.47 585.4 593.2 585.4C591.93 585.4 590.9 586.43 590.9 587.7C590.9 588.971 591.93 590 593.2 590Z" fill="#442F2F"/>
<path opacity="0.6" d="M635.5 577.5C636.77 577.5 637.8 576.471 637.8 575.2C637.8 573.93 636.77 572.9 635.5 572.9C634.23 572.9 633.2 573.93 633.2 575.2C633.2 576.471 634.23 577.5 635.5 577.5Z" fill="#442F2F"/>
<path opacity="0.6" d="M633.2 590C634.47 590 635.5 588.971 635.5 587.7C635.5 586.43 634.47 585.4 633.2 585.4C631.93 585.4 630.9 586.43 630.9 587.7C630.9 588.971 631.93 590 633.2 590Z" fill="#442F2F"/>
<path opacity="0.6" d="M613.9 575.201C615.17 575.201 616.2 574.171 616.2 572.901C616.2 571.63 615.17 570.601 613.9 570.601C612.63 570.601 611.6 571.63 611.6 572.901C611.6 574.171 612.63 575.201 613.9 575.201Z" fill="#442F2F"/>
<path opacity="0.6" d="M531.6 595.701C532.87 595.701 533.9 594.671 533.9 593.401C533.9 592.13 532.87 591.101 531.6 591.101C530.33 591.101 529.3 592.13 529.3 593.401C529.3 594.671 530.33 595.701 531.6 595.701Z" fill="#442F2F"/>
<path opacity="0.6" d="M511.1 595.701C512.37 595.701 513.4 594.671 513.4 593.401C513.4 592.13 512.37 591.101 511.1 591.101C509.83 591.101 508.8 592.13 508.8 593.401C508.8 594.671 509.83 595.701 511.1 595.701Z" fill="#442F2F"/>
<path opacity="0.6" d="M519.2 595.701C520.47 595.701 521.5 594.671 521.5 593.401C521.5 592.13 520.47 591.101 519.2 591.101C517.93 591.101 516.9 592.13 516.9 593.401C516.9 594.671 517.93 595.701 519.2 595.701Z" fill="#442F2F"/>
<path opacity="0.6" d="M488.4 595.701C489.67 595.701 490.7 594.671 490.7 593.401C490.7 592.13 489.67 591.101 488.4 591.101C487.13 591.101 486.1 592.13 486.1 593.401C486.1 594.671 487.13 595.701 488.4 595.701Z" fill="#442F2F"/>
<path opacity="0.6" d="M478.6 592.201C479.87 592.201 480.9 591.171 480.9 589.901C480.9 588.63 479.87 587.601 478.6 587.601C477.33 587.601 476.3 588.63 476.3 589.901C476.3 591.171 477.33 592.201 478.6 592.201Z" fill="#442F2F"/>
<path opacity="0.6" d="M448.2 594.5C449.47 594.5 450.5 593.471 450.5 592.2C450.5 590.93 449.47 589.9 448.2 589.9C446.93 589.9 445.9 590.93 445.9 592.2C445.9 593.471 446.93 594.5 448.2 594.5Z" fill="#442F2F"/>
</g>
<g opacity="0.15">
<path opacity="0.15" d="M406.3 590.3V560.3C406.3 550.6 414.2 542.7 423.9 542.7H375.5C357.5 542.7 342.9 557.3 342.9 575.3C342.9 593.3 357.5 607.9 375.5 607.9H424C414.2 607.9 406.3 600 406.3 590.3Z" fill="#5B3E40"/>
<path opacity="0.15" d="M624.4 547.7H375.6C357.6 547.7 343 562.3 343 580.3C343 580.8 343 581.2 343 581.7C350.3 579.9 360 578.2 369.6 578.2C379.4 578.2 383.9 579.9 389.2 581.9C394.8 584 401.1 586.3 413 586.3C424.9 586.3 431.2 583.9 436.8 581.9C442.1 579.9 446.6 578.2 456.4 578.2C466.2 578.2 470.7 579.9 476 581.9C481.6 584 487.9 586.3 499.8 586.3C511.7 586.3 518 583.9 523.6 581.8C528.9 579.8 533.4 578.1 543.2 578.1C553 578.1 557.5 579.8 562.8 581.8C568.4 583.9 574.7 586.3 586.6 586.3C598.5 586.3 604.8 583.9 610.4 581.8C615.7 579.8 620.2 578.1 630 578.1C639.7 578.1 644.2 579.8 649.4 581.8C651.6 582.6 654.1 583.6 657 584.3C657.2 583 657.3 581.6 657.3 580.2C657.1 562.3 642.5 547.7 624.4 547.7Z" fill="#5B3E40"/>
</g>
<path d="M657.1 575.3C657.1 593.3 642.5 607.9 624.5 607.9H375.6C357.6 607.9 343 593.3 343 575.3C343 557.3 357.6 542.7 375.6 542.7H624.5C642.5 542.7 657.1 557.3 657.1 575.3Z" stroke="#442F2F" stroke-width="8" stroke-miterlimit="10" stroke-linecap="round" stroke-linejoin="round"/>
<path d="M651 535.4C651 539.4 647.8 542.6 643.8 542.6H356.2C352.2 542.6 349 539.4 349 535.4V518.5C349 514.5 352.2 511.3 356.2 511.3H643.7C647.7 511.3 650.9 514.5 650.9 518.5V535.4H651Z" fill="#D83634"/>
<path d="M651 535.4C651 539.4 647.8 542.6 643.8 542.6H356.2C352.2 542.6 349 539.4 349 535.4V518.5C349 514.5 352.2 511.3 356.2 511.3H643.7C647.7 511.3 650.9 514.5 650.9 518.5V535.4H651Z" fill="#D83634"/>
<path opacity="0.3" d="M403.9 535.4V518.5C403.9 514.5 407.1 511.3 411.1 511.3H356.2C352.2 511.3 349 514.5 349 518.5V535.4C349 539.4 352.2 542.6 356.2 542.6H411.1C407.1 542.7 403.9 539.4 403.9 535.4Z" fill="#D83634"/>
<path opacity="0.2" d="M543.4 511.2H520.7V542.6H543.4V511.2Z" fill="white"/>
<path opacity="0.2" d="M557 511.2H550.4V542.6H557V511.2Z" fill="white"/>
<path d="M651 535.4C651 539.4 647.8 542.6 643.8 542.6H356.2C352.2 542.6 349 539.4 349 535.4V518.5C349 514.5 352.2 511.3 356.2 511.3H643.7C647.7 511.3 650.9 514.5 650.9 518.5V535.4H651Z" stroke="#442F2F" stroke-width="8" stroke-miterlimit="10" stroke-linecap="round" stroke-linejoin="round"/>
<path d="M326.5 533.2C337.8 509.7 366 494.3 397.4 494.3H602.7C634.1 494.3 662.2 509.8 673.6 533.2C651.9 533.2 651.9 513.9 630.2 513.9C608.5 513.9 608.5 533.2 586.8 533.2C565.1 533.2 565.1 513.9 543.4 513.9C521.7 513.9 521.7 533.2 500 533.2C478.3 533.2 478.3 513.9 456.6 513.9C434.9 513.9 434.9 533.2 413.2 533.2C391.5 533.2 391.5 513.9 369.8 513.9C348.1 513.9 348.2 533.2 326.5 533.2Z" fill="#8DC838"/>
<path d="M634.1 500C622.1 493.9 617.5 494.2 602.6 494.2H419H414H397.3C365.9 494.2 337.8 509.7 326.4 533.1C348.1 533.1 348.1 513.8 369.8 513.8C383.7 513.8 394.8 525.4 402.3 531.1L404.7 528.4C409.2 523.3 412.7 517.4 415.1 511.1C417.7 504.5 424 500.1 431.1 500.1L634.1 500Z" fill="#73B727"/>
<path d="M326.5 533.2C337.8 509.7 366 494.3 397.4 494.3H602.7C634.1 494.3 662.2 509.8 673.6 533.2C651.9 533.2 651.9 513.9 630.2 513.9C608.5 513.9 608.5 533.2 586.8 533.2C565.1 533.2 565.1 513.9 543.4 513.9C521.7 513.9 521.7 533.2 500 533.2C478.3 533.2 478.3 513.9 456.6 513.9C434.9 513.9 434.9 533.2 413.2 533.2C391.5 533.2 391.5 513.9 369.8 513.9C348.1 513.9 348.2 533.2 326.5 533.2Z" stroke="#442F2F" stroke-width="8" stroke-miterlimit="10" stroke-linecap="round" stroke-linejoin="round"/>
<path d="M328.6 564.6C327.6 569.2 332.8 573.1 338.1 571.7C346.4 569.5 358 567.1 369.6 567.1C391.3 567.1 391.3 575.2 413 575.2C434.7 575.2 434.7 567.1 456.4 567.1C478.1 567.1 478.1 575.2 499.8 575.2C521.5 575.2 521.5 567.1 543.2 567.1C564.9 567.1 564.9 575.2 586.6 575.2C608.3 575.2 608.3 567.1 629.9 567.1C647.4 567.1 650.5 572.4 662.7 574.4C667.8 575.3 672.4 571.4 671.4 567.1L670.5 565.2C664 551.5 648.2 542.5 630.7 542.5H368.1C350.9 542.7 335.4 551.3 328.6 564.6Z" fill="#FBB03B"/>
<path d="M656 549.7C648.8 545.3 640 542.7 630.6 542.7H418.5H411.1H404.7H368.1C350.9 542.7 335.3 551.3 328.6 564.7C327.6 569.3 332.8 573.2 338.1 571.8C346.4 569.6 358 567.2 369.6 567.2C380.2 567.2 385.6 569.1 390.9 571.1L392.9 569.5C395.7 567.3 398.9 563.5 401.6 559.8C406.3 553.4 413.8 549.7 421.7 549.7H656Z" fill="#F99A29"/>
<path d="M328.6 564.6C327.6 569.2 332.8 573.1 338.1 571.7C346.4 569.5 358 567.1 369.6 567.1C391.3 567.1 391.3 575.2 413 575.2C434.7 575.2 434.7 567.1 456.4 567.1C478.1 567.1 478.1 575.2 499.8 575.2C521.5 575.2 521.5 567.1 543.2 567.1C564.9 567.1 564.9 575.2 586.6 575.2C608.3 575.2 608.3 567.1 629.9 567.1C647.4 567.1 650.5 572.4 662.7 574.4C667.8 575.3 672.4 571.4 671.4 567.1L670.5 565.2C664 551.5 648.2 542.5 630.7 542.5H368.1C350.9 542.7 335.4 551.3 328.6 564.6Z" stroke="#442F2F" stroke-width="8" stroke-miterlimit="10" stroke-linecap="round" stroke-linejoin="round"/>
<path d="M417.6 654.999C411.4 654.999 406.3 649.999 406.3 643.699V607.899H428.8V643.699C428.9 649.899 423.8 654.999 417.6 654.999Z" stroke="#442F2F" stroke-width="8" stroke-miterlimit="10" stroke-linecap="round" stroke-linejoin="round"/>
<path d="M417.6 654.999C411.4 654.999 406.3 649.999 406.3 643.699V607.899H428.8V643.699C428.9 649.899 423.8 654.999 417.6 654.999Z" fill="#D83634"/>
<path d="M456 632.2C451 632.2 446.9 628.1 446.9 623.1V607.8H465V623.1C465.1 628.2 461 632.2 456 632.2Z" fill="#D83634"/>
<path d="M456 632.2C451 632.2 446.9 628.1 446.9 623.1V607.8H465V623.1C465.1 628.2 461 632.2 456 632.2Z" stroke="#442F2F" stroke-width="8" stroke-miterlimit="10" stroke-linecap="round" stroke-linejoin="round"/>
<path d="M417.6 654.999C411.4 654.999 406.3 649.999 406.3 643.699V607.899H428.8V643.699C428.9 649.899 423.8 654.999 417.6 654.999Z" stroke="#442F2F" stroke-width="8" stroke-miterlimit="10" stroke-linecap="round" stroke-linejoin="round"/>
<path d="M565.7 661.799C556.4 661.799 548.8 654.199 548.8 644.899V607.899H582.6V644.899C582.6 654.299 575.1 661.799 565.7 661.799Z" fill="#D83634"/>
<path d="M565.7 661.799C556.4 661.799 548.8 654.199 548.8 644.899V607.899H582.6V644.899C582.6 654.299 575.1 661.799 565.7 661.799Z" stroke="#442F2F" stroke-width="8" stroke-miterlimit="10" stroke-linecap="round" stroke-linejoin="round"/>
<path d="M392.5 643.4C394.488 643.4 396.1 641.788 396.1 639.8C396.1 637.812 394.488 636.2 392.5 636.2C390.512 636.2 388.9 637.812 388.9 639.8C388.9 641.788 390.512 643.4 392.5 643.4Z" fill="#442F2F"/>
<path d="M596.1 663.8C597.205 663.8 598.1 662.904 598.1 661.8C598.1 660.695 597.205 659.8 596.1 659.8C594.995 659.8 594.1 660.695 594.1 661.8C594.1 662.904 594.995 663.8 596.1 663.8Z" fill="#442F2F"/>
<path d="M496.1 662.3C496.928 662.3 497.6 661.628 497.6 660.8C497.6 659.971 496.928 659.3 496.1 659.3C495.272 659.3 494.6 659.971 494.6 660.8C494.6 661.628 495.272 662.3 496.1 662.3Z" fill="#442F2F"/>
<path d="M483.8 640.4C485.954 640.4 487.7 638.654 487.7 636.5C487.7 634.346 485.954 632.6 483.8 632.6C481.646 632.6 479.9 634.346 479.9 636.5C479.9 638.654 481.646 640.4 483.8 640.4Z" fill="#442F2F"/>
<path d="M457.6 657.2C458.428 657.2 459.1 656.529 459.1 655.7C459.1 654.872 458.428 654.2 457.6 654.2C456.772 654.2 456.1 654.872 456.1 655.7C456.1 656.529 456.772 657.2 457.6 657.2Z" fill="#442F2F"/>
<path d="M526.4 652C529.769 652 532.5 649.269 532.5 645.9C532.5 642.531 529.769 639.8 526.4 639.8C523.031 639.8 520.3 642.531 520.3 645.9C520.3 649.269 523.031 652 526.4 652Z" fill="#442F2F"/>
<path d="M600.8 641C602.346 641 603.6 639.747 603.6 638.2C603.6 636.654 602.346 635.4 600.8 635.4C599.254 635.4 598 636.654 598 638.2C598 639.747 599.254 641 600.8 641Z" fill="#442F2F"/>
<path d="M509.4 634.2C510.56 634.2 511.5 633.26 511.5 632.1C511.5 630.94 510.56 630 509.4 630C508.24 630 507.3 630.94 507.3 632.1C507.3 633.26 508.24 634.2 509.4 634.2Z" fill="#442F2F"/>
<path d="M427.9 427.699C430.054 427.699 431.8 425.953 431.8 423.799C431.8 421.645 430.054 419.899 427.9 419.899C425.746 419.899 424 421.645 424 423.799C424 425.953 425.746 427.699 427.9 427.699Z" fill="#442F2F"/>
<path d="M487.7 442.699C489.854 442.699 491.6 440.953 491.6 438.799C491.6 436.645 489.854 434.899 487.7 434.899C485.546 434.899 483.8 436.645 483.8 438.799C483.8 440.953 485.546 442.699 487.7 442.699Z" fill="#442F2F"/>
<path d="M510.2 454.1C511.305 454.1 512.2 453.204 512.2 452.1C512.2 450.995 511.305 450.1 510.2 450.1C509.095 450.1 508.2 450.995 508.2 452.1C508.2 453.204 509.095 454.1 510.2 454.1Z" fill="#442F2F"/>
<path d="M581.7 431.499C583.357 431.499 584.7 430.156 584.7 428.499C584.7 426.842 583.357 425.499 581.7 425.499C580.043 425.499 578.7 426.842 578.7 428.499C578.7 430.156 580.043 431.499 581.7 431.499Z" fill="#442F2F"/>
<path d="M508.2 410.599C511.569 410.599 514.3 407.868 514.3 404.499C514.3 401.13 511.569 398.399 508.2 398.399C504.831 398.399 502.1 401.13 502.1 404.499C502.1 407.868 504.831 410.599 508.2 410.599Z" fill="#442F2F"/>
<path d="M554.9 421.599C557.496 421.599 559.6 419.495 559.6 416.899C559.6 414.303 557.496 412.199 554.9 412.199C552.304 412.199 550.2 414.303 550.2 416.899C550.2 419.495 552.304 421.599 554.9 421.599Z" fill="#442F2F"/>
<path d="M453.7 442.299C455.025 442.299 456.1 441.225 456.1 439.899C456.1 438.574 455.025 437.499 453.7 437.499C452.375 437.499 451.3 438.574 451.3 439.899C451.3 441.225 452.375 442.299 453.7 442.299Z" fill="#442F2F"/>
<path d="M526.4 432.499C528.609 432.499 530.4 430.708 530.4 428.499C530.4 426.29 528.609 424.499 526.4 424.499C524.191 424.499 522.4 426.29 522.4 428.499C522.4 430.708 524.191 432.499 526.4 432.499Z" fill="#442F2F"/>
<path d="M480.3 413.699C481.128 413.699 481.8 413.028 481.8 412.199C481.8 411.371 481.128 410.699 480.3 410.699C479.472 410.699 478.8 411.371 478.8 412.199C478.8 413.028 479.472 413.699 480.3 413.699Z" fill="#442F2F"/>
<path d="M437.1 456.199C437.928 456.199 438.6 455.528 438.6 454.699C438.6 453.871 437.928 453.199 437.1 453.199C436.272 453.199 435.6 453.871 435.6 454.699C435.6 455.528 436.272 456.199 437.1 456.199Z" fill="#442F2F"/>
<path d="M599.8 433.2C600.242 433.2 600.6 432.841 600.6 432.4C600.6 431.958 600.242 431.6 599.8 431.6C599.358 431.6 599 431.958 599 432.4C599 432.841 599.358 433.2 599.8 433.2Z" fill="#442F2F"/>
<path d="M456.1 412.1C456.928 412.1 457.6 411.428 457.6 410.6C457.6 409.771 456.928 409.1 456.1 409.1C455.272 409.1 454.6 409.771 454.6 410.6C454.6 411.428 455.272 412.1 456.1 412.1Z" fill="#442F2F"/>
<path d="M568.5 454.1C569.328 454.1 570 453.428 570 452.6C570 451.771 569.328 451.1 568.5 451.1C567.672 451.1 567 451.771 567 452.6C567 453.428 567.672 454.1 568.5 454.1Z" fill="#442F2F"/>
<path d="M544.8 440C545.463 440 546 439.462 546 438.8C546 438.137 545.463 437.6 544.8 437.6C544.137 437.6 543.6 438.137 543.6 438.8C543.6 439.462 544.137 440 544.8 440Z" fill="#442F2F"/>
<path d="M357.8 398.399L365.8 404.499" stroke="#F7931E" stroke-width="4" stroke-miterlimit="10" stroke-linecap="round" stroke-linejoin="round"/>
<path d="M366.8 385.899L374.3 397.399" stroke="#F7931E" stroke-width="4" stroke-miterlimit="10" stroke-linecap="round" stroke-linejoin="round"/>
<path d="M383.5 378.8V392.6" stroke="#F7931E" stroke-width="4" stroke-miterlimit="10" stroke-linecap="round" stroke-linejoin="round"/>
</svg>
